<?xml version="1.0" encoding="UTF-8"?><svg id="Livello_1" xmlns="http://www.w3.org/2000/svg" viewBox="0 0 227.28 85.04"><defs><style>.cls-1{fill:#e7b818;}.cls-2{fill:#f8c300;}.cls-3{fill:#1b4467;}.cls-4{fill:#c21724;}.cls-5{fill:#417f3d;}.cls-6{fill:#d70560;}.cls-7{fill:#a4183d;}.cls-8{fill:#2993d1;}.cls-9{fill:#e0bf78;}.cls-10{fill:#d7af19;}.cls-11{fill:#2c9942;}.cls-12{fill:#e5351c;}.cls-13{fill:#3d3d3c;}.cls-14{fill:#ec6321;}.cls-15{fill:#f59d10;}.cls-16{fill:#ca9817;}.cls-17{fill:#94c356;}.cls-18{fill:#e01932;}.cls-19{fill:#3dbae2;}.cls-20{fill:#63b232;}.cls-21{fill:#ae5d57;}.cls-22{fill:#5f8d44;}.cls-23{fill:#0f659a;}.cls-24{fill:#774542;}</style></defs><g><path class="cls-13" d="m90.42,18.41v2.12h2.54v.84h-2.54v.58c0,.51-.07.93-.21,1.26-.14.34-.35.61-.63.83-.23.18-.5.32-.83.41-.32.09-.69.14-1.1.14-.44,0-.83-.06-1.16-.17-.33-.11-.61-.27-.83-.47-.22-.2-.39-.42-.5-.69-.11-.26-.17-.54-.17-.84,0-.51.13-.92.39-1.22.26-.31.62-.51,1.06-.61v-3.05h6.64v.85h-2.66Zm-.96,2.96h-2.11c-.45,0-.79.08-1.02.24s-.35.43-.35.8c0,.19.04.37.11.53.07.16.18.3.32.42.14.12.32.21.54.27.21.07.46.1.74.1.6,0,1.04-.14,1.33-.42s.43-.74.43-1.36v-.58Zm0-2.96h-2.07v2.12h2.07v-2.12Z"/><path class="cls-13" d="m100.21,18.41v6.02l-3.44,2.46-.52-.68,3.01-2.14v-5.67h-2.87v6.06h-.96v-6.91h6.6v.85h-1.81Z"/><path class="cls-13" d="m99.64,15.36c0,.12-.02.23-.07.33-.04.1-.11.19-.18.27s-.17.14-.27.18c-.11.04-.22.07-.34.07s-.23-.02-.34-.07c-.1-.04-.2-.11-.27-.18s-.14-.17-.18-.27c-.04-.1-.07-.22-.07-.33s.02-.23.07-.34c.04-.11.11-.2.18-.27s.17-.14.27-.18c.11-.05.22-.07.34-.07s.23.02.34.07c.1.05.2.11.27.18s.14.17.18.27c.04.11.07.22.07.34Z"/><path class="cls-13" d="m108.32,24.48v-.65c.18-.2.34-.42.47-.65.14-.23.25-.46.34-.71.09-.24.16-.49.2-.74.04-.25.07-.5.07-.75,0-.4-.06-.76-.18-1.09-.12-.33-.3-.61-.52-.85-.23-.24-.5-.42-.82-.55s-.67-.19-1.06-.19-.75.07-1.09.21-.64.34-.89.6-.46.57-.6.93c-.15.36-.22.76-.22,1.2,0,.07,0,.15,0,.23s.02.17.04.25h.04c.05-.15.13-.29.24-.41.1-.12.22-.23.37-.32.14-.09.3-.15.47-.2.17-.05.35-.07.54-.07.26,0,.5.04.73.13.23.09.42.21.59.38.17.16.29.36.39.59.09.23.14.48.14.76s-.05.56-.14.8c-.09.24-.23.46-.4.64-.18.18-.39.32-.63.42-.25.1-.52.15-.83.15-.28,0-.53-.04-.76-.13-.23-.09-.43-.21-.62-.37-.18-.16-.34-.34-.48-.55-.14-.21-.25-.44-.34-.68-.09-.24-.16-.5-.2-.76s-.07-.52-.07-.78c0-.63.1-1.18.3-1.67.2-.48.47-.89.82-1.22.34-.33.75-.58,1.21-.75.46-.17.95-.26,1.47-.26.49,0,.94.08,1.37.23.43.15.8.38,1.12.67.32.29.57.66.75,1.09.19.43.28.93.28,1.49,0,.24-.02.49-.06.73-.04.24-.09.48-.16.71-.07.23-.16.46-.26.67-.1.22-.22.41-.35.59h2.9v-6.06h.96v6.91h-5.1Zm-1.74-1.83c0-.15-.02-.3-.07-.43-.05-.13-.12-.25-.21-.35-.09-.1-.2-.18-.33-.24-.13-.06-.28-.09-.45-.09s-.31.03-.45.09c-.14.06-.26.14-.36.24-.1.1-.18.22-.23.35-.05.13-.08.28-.08.43,0,.17.03.33.08.47.05.14.13.26.23.37.1.1.22.18.35.24.14.06.28.09.44.09.14,0,.28-.02.41-.07.13-.05.24-.12.34-.22.1-.1.17-.22.23-.36.06-.14.08-.31.08-.51Z"/><path class="cls-13" d="m122.91,22.55c0,.3-.06.57-.17.82-.11.25-.28.47-.51.65s-.51.33-.86.43c-.34.1-.74.16-1.2.16-.52,0-.99-.06-1.41-.18-.42-.12-.8-.29-1.13-.51s-.62-.46-.87-.75c-.25-.29-.45-.6-.61-.93-.16-.33-.28-.67-.36-1.03-.08-.36-.12-.71-.12-1.06,0-.51.06-.97.18-1.4.12-.42.29-.8.5-1.14s.46-.63.75-.88.6-.46.93-.62c.33-.16.69-.29,1.05-.37.37-.08.73-.12,1.1-.12.44,0,.82.06,1.15.17s.61.26.83.44c.23.18.4.4.51.65.12.25.17.51.17.79s-.05.54-.14.76c-.09.22-.23.41-.4.57-.17.16-.38.27-.61.36-.24.08-.5.12-.78.12-.3,0-.57-.04-.81-.13-.24-.09-.44-.21-.6-.36-.16-.15-.29-.34-.38-.55-.09-.21-.13-.45-.13-.7,0-.13.02-.26.05-.38s.08-.24.14-.35c.06-.11.13-.21.22-.3.08-.09.17-.17.27-.23v-.02c-.36.04-.72.15-1.08.33-.36.17-.68.42-.97.72-.29.31-.52.68-.7,1.12-.18.44-.27.94-.27,1.49,0,.5.08.96.24,1.38.16.43.37.8.64,1.12.27.32.58.58.93.78s.73.33,1.12.38v-.02c-.15-.14-.29-.31-.39-.52-.11-.21-.16-.45-.16-.73,0-.26.05-.5.15-.71.1-.22.23-.4.41-.56s.38-.27.62-.36c.24-.09.5-.13.79-.13s.54.04.78.13c.24.08.44.21.61.36.17.16.3.35.39.57.09.23.14.48.14.75Zm-1.02-4.91c0-.18-.03-.34-.1-.49-.07-.14-.16-.26-.28-.36-.12-.1-.26-.18-.41-.24-.16-.06-.33-.09-.5-.1-.21.11-.39.27-.52.47-.13.2-.2.43-.2.67,0,.32.09.57.27.76s.43.29.76.29c.29,0,.53-.09.71-.26.18-.17.27-.42.27-.75Zm.06,4.97c0-.17-.02-.33-.07-.46s-.12-.24-.2-.33-.19-.16-.31-.2c-.12-.04-.25-.07-.4-.07-.16,0-.31.03-.44.08-.13.05-.25.12-.34.21s-.17.2-.22.32-.08.26-.08.41c0,.12.02.25.05.36s.08.23.14.34c.06.11.13.2.22.29.09.09.19.16.3.22.2,0,.39-.04.55-.1.17-.06.31-.14.43-.24.12-.1.21-.22.27-.36s.1-.3.1-.47Z"/><path class="cls-13" d="m133.53,22.97c0,.5-.09.95-.28,1.33-.19.38-.45.71-.8.97s-.77.46-1.26.59-1.06.2-1.68.2-1.19,0-1.77,0-1.14,0-1.68,0c-.23,0-.4.03-.49.08-.09.06-.14.16-.14.3,0,.09.01.17.03.26s.05.17.1.25h-.86c-.04-.1-.08-.2-.11-.32s-.05-.23-.05-.35c0-.37.12-.63.36-.81.24-.17.6-.26,1.06-.26h.78c.29,0,.6,0,.92,0s.64,0,.97,0h.94c.14,0,.27,0,.39,0,.13,0,.25-.01.37-.03.35-.05.66-.13.94-.25s.51-.27.7-.45c.19-.18.33-.4.43-.64.1-.24.15-.52.15-.82s-.04-.57-.13-.78-.21-.38-.36-.51c-.15-.13-.34-.22-.55-.28-.21-.06-.45-.08-.7-.08h-.69v.58c0,.48-.06.88-.19,1.21-.13.33-.32.6-.58.82-.23.2-.52.35-.85.46-.33.1-.72.16-1.14.16s-.83-.06-1.16-.17c-.33-.11-.61-.27-.84-.47-.22-.2-.39-.42-.5-.69-.11-.26-.17-.54-.17-.84,0-.5.13-.91.39-1.22.26-.31.62-.51,1.06-.61v-3.05h6.64v.85h-2.66v2.12h.65c.42,0,.8.05,1.14.14s.63.24.87.43.43.45.56.76c.13.31.2.68.2,1.11Zm-4.39-1.59h-2.11c-.45,0-.79.08-1.02.24s-.35.43-.35.8c0,.19.04.37.11.53.07.16.18.3.32.42.14.12.32.21.54.27.21.07.46.1.75.1.6,0,1.04-.14,1.33-.42s.43-.74.43-1.36v-.58Zm0-2.96h-2.07v2.12h2.07v-2.12Z"/><path class="cls-13" d="m140.78,18.41v2.12h2.54v.84h-2.54v.58c0,.51-.07.93-.21,1.26-.14.34-.35.61-.63.83-.23.18-.5.32-.83.41-.32.09-.69.14-1.1.14-.44,0-.83-.06-1.16-.17-.33-.11-.61-.27-.83-.47-.22-.2-.39-.42-.5-.69-.11-.26-.17-.54-.17-.84,0-.51.13-.92.39-1.22.26-.31.62-.51,1.06-.61v-3.05h6.64v.85h-2.66Zm-.96,2.96h-2.11c-.45,0-.79.08-1.02.24s-.35.43-.35.8c0,.19.04.37.11.53.07.16.18.3.32.42.14.12.32.21.54.27.21.07.46.1.74.1.6,0,1.04-.14,1.33-.42s.43-.74.43-1.36v-.58Zm0-2.96h-2.07v2.12h2.07v-2.12Z"/><path class="cls-13" d="m94.15,34.69h-2.45v.19c0,.43-.08.82-.23,1.16-.15.34-.36.62-.63.86-.27.23-.59.41-.96.53-.37.12-.77.18-1.21.18s-.82-.06-1.18-.17c-.36-.11-.67-.27-.93-.48s-.46-.46-.61-.75c-.15-.29-.22-.62-.22-.98,0-.52.16-.95.47-1.29-.17-.15-.33-.32-.48-.52-.15-.2-.28-.42-.39-.66-.11-.24-.2-.5-.26-.77s-.1-.57-.1-.87c0-.64.14-1.21.42-1.72.28-.51.68-.95,1.21-1.32.53-.36,1.16-.65,1.92-.84.75-.2,1.6-.3,2.55-.3,1.09,0,2.06.14,2.9.42.85.28,1.53.71,2.05,1.27.43.47.75,1.04.96,1.72.21.68.31,1.5.31,2.45,0,.08,0,.18,0,.29s0,.24,0,.35,0,.21,0,.3,0,.14,0,.15l-.04,3.59h-1.48l.05-3.47c0-.05,0-.12,0-.21s0-.17,0-.26v-.41c0-.44-.02-.83-.05-1.19-.04-.36-.09-.69-.17-.98s-.17-.56-.29-.79c-.12-.24-.27-.45-.44-.63-.38-.4-.89-.71-1.55-.92-.66-.21-1.45-.32-2.38-.32-.73,0-1.38.06-1.95.19s-1.05.32-1.44.56c-.39.24-.69.54-.89.89-.2.35-.3.75-.3,1.2,0,.18.02.36.05.54.03.18.08.35.15.51s.14.31.22.44c.09.14.18.26.29.36v-2.41h7.18v1.38h-2.55v1.37h2.45v1.37Zm-3.94-.02h-2.17c-.1,0-.19,0-.28.03s-.17.05-.24.09c-.07.04-.12.1-.16.18s-.06.17-.06.28c0,.12.03.24.08.36.06.12.14.22.26.32.12.09.26.17.44.23.18.06.39.09.64.09.46,0,.83-.11,1.09-.34.26-.23.4-.58.4-1.05v-.17Zm0-2.73h-1.69v1.37h1.69v-1.37Z"/><path class="cls-13" d="m110.5,34.06c0,.19,0,.4-.02.62s-.04.45-.08.7c-.04.24-.09.49-.15.75s-.15.51-.25.76h1.69v-6.32h1.49v7.59h-3.88c-.22.29-.47.56-.76.81s-.63.47-1.02.65c-.39.18-.82.33-1.3.44-.49.11-1.03.16-1.63.16-.55,0-1.05-.04-1.48-.11-.44-.07-.82-.17-1.15-.29-.33-.12-.61-.26-.84-.42s-.42-.33-.57-.5c-.15-.17-.25-.34-.32-.51-.07-.17-.1-.33-.1-.47,0-.12.02-.24.07-.36s.12-.23.22-.33c.1-.1.24-.18.41-.24s.38-.09.63-.09h7c.17-.37.29-.79.36-1.24.07-.45.11-.95.11-1.47,0-1.58-.41-2.36-1.23-2.36-.16,0-.31.04-.46.12s-.26.2-.37.36c-.1.17-.18.38-.24.64s-.09.58-.09.94v2.41h-1.48v-2.41c0-.71-.08-1.23-.25-1.56-.17-.33-.44-.5-.83-.5-.17,0-.32.04-.44.11-.12.07-.21.2-.29.37-.07.18-.13.41-.16.7s-.05.65-.05,1.09v.32c0,.15,0,.32,0,.52,0,.2,0,.41.01.65s0,.47.02.71h-1.48c0-.24-.01-.48-.02-.71s0-.45-.01-.66,0-.39,0-.54c0-.16,0-.28,0-.38,0-.45.01-.83.04-1.15s.07-.58.12-.81.12-.41.21-.57c.09-.15.19-.29.31-.42.22-.24.47-.42.75-.52.27-.1.57-.16.9-.16.25,0,.47.03.67.09s.38.14.53.25c.16.11.29.24.41.4.12.15.22.33.31.52h.04c.09-.18.2-.35.33-.51.13-.15.28-.29.45-.4.17-.11.36-.2.56-.26s.43-.09.67-.09c.41,0,.77.08,1.09.25s.59.4.82.71c.22.31.4.7.51,1.16.12.46.18.98.18,1.57Zm-8.87,4.21c0,.09.08.17.25.25.17.08.39.15.67.21s.6.11.96.15c.36.04.73.06,1.12.06.63,0,1.19-.07,1.66-.21.47-.14.87-.33,1.21-.59h-5.73c-.05,0-.09.02-.11.05-.02.03-.02.06-.02.08Z"/><path class="cls-13" d="m122.21,31.94v1.37h.5c.49,0,.92.06,1.29.18.37.12.67.3.91.53.24.23.42.51.55.85.12.33.18.71.18,1.14,0,.54-.09,1.02-.29,1.44-.19.42-.47.77-.85,1.06-.37.29-.84.51-1.4.66s-1.21.23-1.94.23h-.63c-.22,0-.44,0-.65,0s-.42,0-.63,0c-.2,0-.38,0-.54,0-.16,0-.29,0-.41,0h-.21c-.14,0-.25,0-.33.02-.08.01-.14.04-.19.07-.04.03-.07.06-.08.1-.01.04-.02.08-.02.12,0,.07,0,.13.02.18s.04.12.09.2h-1.33c-.05-.13-.09-.25-.11-.37s-.04-.24-.04-.36c0-.24.04-.43.12-.59.08-.16.19-.29.33-.39.14-.1.31-.17.51-.21.2-.04.42-.07.66-.07h.29c.16,0,.35,0,.57,0,.22,0,.46,0,.71,0s.5,0,.73,0c.23,0,.44,0,.62,0h.38c.14,0,.27,0,.37,0s.19,0,.27-.01.14-.01.2-.02c.06,0,.11-.01.17-.02.36-.05.66-.13.92-.24.26-.11.47-.24.63-.41.16-.17.28-.36.36-.58s.12-.47.12-.75c0-.33-.05-.6-.14-.78-.09-.19-.21-.33-.34-.42-.14-.09-.28-.14-.44-.16-.16-.02-.3-.03-.42-.03h-.51v.21c0,.28-.03.54-.09.78-.06.24-.15.47-.27.67-.11.2-.25.38-.41.54-.16.16-.34.29-.54.39-.25.13-.52.22-.8.27-.29.05-.57.08-.84.08-.46,0-.87-.06-1.24-.17-.37-.11-.69-.28-.95-.49s-.47-.46-.61-.76c-.14-.29-.21-.62-.21-.98,0-.44.11-.81.32-1.12.22-.31.54-.52.98-.65v-2.88h7.21v1.38h-2.55Zm-1.49,2.73h-2.17c-.1,0-.19,0-.28.03-.09.02-.17.05-.24.09-.07.04-.12.1-.16.18s-.06.17-.06.28c0,.12.03.24.08.36.06.12.14.22.26.32s.26.17.44.23c.18.06.39.09.64.09.46,0,.83-.11,1.09-.34.26-.23.4-.58.4-1.05v-.17Zm0-2.73h-1.69v1.37h1.69v-1.37Z"/><path class="cls-13" d="m134.28,31.94v5.53h-1.49v-5.53h-2.55v5.53h-1.49v-6.91h7.26v1.38h-1.74Z"/><path class="cls-13" d="m139.56,34.02c.16-.13.36-.25.59-.35.23-.1.49-.15.78-.15.25,0,.49.04.71.12.23.08.42.21.6.37.17.16.31.37.41.6.1.24.15.51.15.83,0,.33-.06.63-.18.9-.12.27-.27.49-.47.68-.2.19-.43.33-.7.43-.27.1-.55.15-.85.15-.4,0-.77-.09-1.09-.26s-.6-.41-.82-.7c-.23-.29-.4-.64-.52-1.03-.12-.39-.18-.8-.18-1.24,0-.64.13-1.21.39-1.71.26-.5.62-.92,1.07-1.26.45-.34.99-.6,1.6-.77.62-.18,1.28-.27,1.99-.27.49,0,.98.04,1.44.13.47.08.89.21,1.28.37.26-.07.51-.12.73-.16.22-.04.44-.07.65-.09s.42-.04.62-.05.43-.01.66-.01h4.2v1.38h-1.89v5.53h-1.48v-5.53h-.68c-.24,0-.46,0-.67,0-.2,0-.42,0-.64,0,.32.35.57.75.75,1.2.18.45.27.94.27,1.49,0,.43-.06.82-.17,1.19-.12.36-.28.68-.5.94-.22.26-.48.47-.79.62-.31.15-.66.22-1.06.22-.41,0-.78-.08-1.09-.24-.32-.16-.58-.37-.79-.64s-.38-.58-.48-.93c-.11-.35-.16-.72-.16-1.1,0-.52.1-1.02.3-1.5.2-.47.5-.91.9-1.31-.23-.05-.48-.09-.74-.11-.26-.02-.5-.04-.73-.04-.49,0-.92.05-1.28.14-.36.1-.67.22-.92.37s-.46.31-.62.49c-.16.18-.28.35-.37.52-.09.17-.15.32-.18.45s-.05.23-.05.29h.04Zm1.72,1.5c0-.21-.07-.38-.2-.51-.13-.13-.31-.2-.53-.2-.11,0-.22.02-.32.06-.1.04-.18.09-.26.15-.08.06-.14.14-.18.23s-.06.19-.06.29.02.2.06.29c.04.09.1.17.17.23.07.07.16.12.25.16.1.04.2.05.31.05s.21-.02.3-.06c.09-.04.17-.09.24-.16s.11-.14.15-.24c.04-.09.06-.19.06-.3Zm4.43-3.23c-.16.13-.3.29-.41.47-.11.18-.21.37-.28.57-.07.2-.13.4-.17.62s-.06.42-.06.63c0,.23.02.44.06.65s.1.38.19.54c.08.16.18.28.3.37.12.09.26.14.42.14.15,0,.29-.04.4-.13.12-.08.21-.2.29-.34.08-.14.14-.31.18-.5s.06-.39.06-.61-.02-.44-.06-.67-.1-.45-.18-.66c-.08-.21-.18-.41-.31-.6-.12-.18-.27-.34-.43-.47Z"/><path class="cls-13" d="m155.38,37.48v-6.58c0-.4-.01-.77-.04-1.09s-.09-.59-.18-.81c-.09-.22-.23-.39-.4-.51-.17-.12-.4-.17-.69-.17-.22,0-.4.03-.55.09-.15.06-.28.15-.37.26-.1.11-.17.23-.21.37s-.06.29-.06.44c0,.22.04.44.12.66s.18.41.31.57h-1.4c-.16-.27-.28-.53-.36-.78s-.11-.5-.11-.75c0-.31.06-.6.18-.87.12-.27.29-.5.53-.71s.52-.36.86-.47c.34-.11.73-.17,1.18-.17.53,0,.98.08,1.33.25.35.17.63.41.83.71.2.31.35.68.43,1.11.08.43.12.91.12,1.44v7h-1.49Z"/><path class="cls-13" d="m164.33,37.48v-.75h-.03c-.2.28-.46.5-.77.65-.31.15-.66.23-1.06.23-.15,0-.29-.01-.44-.03-.14-.02-.28-.06-.42-.1-.13-.04-.26-.1-.38-.17-.12-.07-.22-.15-.32-.23-.09-.09-.18-.19-.25-.31-.07-.12-.14-.26-.18-.42-.05-.16-.09-.35-.11-.56s-.04-.45-.04-.72v-4.49h1.48v4.26c0,.18,0,.33.01.45,0,.13.03.23.05.32.02.09.05.16.08.22.03.06.07.11.11.15.08.08.18.14.31.19.13.05.27.08.44.08s.33-.03.48-.08c.15-.05.29-.13.4-.22.12-.1.21-.21.28-.34.07-.13.1-.27.1-.43v-4.6h1.48v5.53h3.76v-5.53h1.48v6.91h-6.48Z"/><path class="cls-13" d="m177.57,37.48v-1.36h3.1c.1-.15.19-.32.27-.52.08-.2.12-.43.12-.69,0-.2-.03-.37-.08-.51s-.12-.25-.2-.33-.18-.15-.29-.18c-.11-.04-.22-.06-.34-.06-.13,0-.26.02-.39.07-.13.04-.25.12-.35.22-.1.1-.19.24-.25.4-.07.17-.1.37-.1.62v.43h-1.49v-3.64h-1.73v5.55h-1.49v-6.91h7.63v1.36h-2.91v1.07h.02c.22-.17.47-.3.74-.38.27-.08.53-.12.79-.12s.52.04.76.12c.25.08.46.21.65.39.19.18.34.4.45.68.11.28.17.61.17,1,0,.15,0,.29-.03.41s-.04.24-.08.35c-.03.11-.07.22-.12.32-.04.1-.09.21-.15.33h1.56v-5.55h1.49v6.91h-7.76Z"/><path class="cls-13" d="m178.84,28.35c0-.16.03-.31.09-.44.06-.14.14-.26.24-.36.1-.1.22-.18.36-.24.14-.06.29-.09.45-.09s.31.03.45.09c.14.06.26.14.37.24.1.1.19.22.25.36.06.14.09.29.09.44s-.03.3-.09.44c-.06.14-.14.26-.25.36-.1.1-.22.18-.37.24-.14.06-.29.09-.45.09s-.31-.03-.45-.09c-.14-.06-.26-.14-.36-.24-.1-.1-.18-.22-.24-.36-.06-.14-.09-.28-.09-.44Z"/><path class="cls-13" d="m197.91,35.47c0,.33-.06.62-.17.89-.11.26-.27.49-.48.67-.2.18-.45.33-.73.42-.28.1-.59.15-.93.15-.08,0-.17,0-.27,0-.1,0-.19-.02-.29-.03-.1-.01-.19-.03-.27-.05-.09-.02-.17-.04-.23-.06v-1.36c.13.05.27.09.43.12.16.03.32.05.48.05.32,0,.54-.07.67-.21.13-.14.2-.33.2-.58,0-.08-.01-.17-.03-.27-.02-.1-.07-.18-.13-.26s-.17-.14-.29-.19c-.13-.05-.29-.08-.5-.08h-1.01v.21c0,.43-.08.82-.23,1.16-.15.34-.37.62-.63.86-.27.23-.59.41-.95.53-.37.12-.77.18-1.19.18s-.83-.06-1.2-.17c-.36-.11-.67-.28-.93-.49s-.46-.46-.61-.76c-.14-.3-.22-.63-.22-.99,0-.19.02-.38.08-.56s.13-.35.24-.51c.11-.16.24-.29.41-.41.17-.12.36-.21.59-.27v-2.88h7.21v1.38h-2.55v1.37h1.1c.24,0,.45.02.63.05.19.03.35.07.49.12.14.05.27.1.37.17.11.06.2.13.27.19.24.21.42.46.52.74.11.29.16.58.16.89Zm-5.05-.8h-2.17c-.1,0-.19,0-.28.03-.09.02-.17.05-.24.09-.07.04-.12.1-.16.18s-.06.17-.06.28c0,.12.03.24.08.36.06.12.14.22.26.32s.26.17.44.23c.18.06.39.09.64.09.46,0,.83-.11,1.09-.34.26-.23.4-.58.4-1.05v-.17Zm0-2.73h-1.69v1.37h1.69v-1.37Z"/><path class="cls-13" d="m211.41,31.94v5.53h-1.49v-5.53h-2.22v5.53h-1.49v-3.49c0-.72-.17-1.28-.51-1.66s-.82-.58-1.44-.58c-.29,0-.55.04-.77.12-.22.08-.41.19-.57.32-.16.13-.29.28-.39.44-.1.16-.19.33-.25.49-.06.16-.11.32-.13.46s-.04.27-.04.36v.02s0,.02,0,.04h.04c.16-.13.37-.25.61-.34.24-.1.51-.15.79-.15.25,0,.49.04.71.13.23.08.42.21.6.37.17.16.31.36.41.6.1.24.15.51.15.82,0,.33-.06.64-.18.9-.12.27-.27.49-.47.68-.2.19-.43.33-.7.43-.27.1-.56.15-.86.15-.4,0-.76-.08-1.08-.25-.32-.17-.59-.4-.82-.7-.23-.3-.4-.65-.52-1.06-.12-.41-.18-.85-.18-1.32,0-.6.09-1.14.28-1.62.19-.48.45-.89.78-1.22s.72-.6,1.17-.78c.45-.18.94-.27,1.46-.27.17,0,.35.01.53.04s.35.06.52.12c.17.06.34.14.5.24.16.1.32.22.47.37h.05v-.58h6.51v1.38h-1.45Zm-7.5,3.57c0-.21-.07-.38-.2-.51-.13-.13-.31-.2-.53-.2-.11,0-.22.02-.32.06-.1.04-.18.09-.26.15-.08.06-.14.14-.18.23s-.06.19-.06.29.02.2.06.29c.04.09.1.17.17.23.07.07.16.12.25.16.1.04.2.05.31.05s.21-.02.3-.06c.09-.04.17-.09.24-.16s.11-.14.15-.24c.04-.09.06-.19.06-.3Z"/><path class="cls-13" d="m205.82,28.35c0-.16.03-.31.09-.44.06-.14.14-.26.24-.36.1-.1.22-.18.36-.24.14-.06.29-.09.45-.09s.31.03.45.09c.14.06.26.14.37.24.1.1.19.22.25.36.06.14.09.29.09.44s-.03.3-.09.44c-.06.14-.14.26-.25.36-.1.1-.22.18-.37.24-.14.06-.29.09-.45.09s-.31-.03-.45-.09c-.14-.06-.26-.14-.36-.24-.1-.1-.18-.22-.24-.36-.06-.14-.09-.28-.09-.44Z"/><path class="cls-13" d="m96.35,43.56h1.48v5.28h.02c.14-.12.31-.21.51-.29.2-.08.41-.11.64-.11.3,0,.55.06.75.18s.37.27.49.46c.12.19.21.39.27.62.05.23.08.45.08.66,0,.42-.09.8-.28,1.13s-.45.62-.79.85c-.34.23-.75.41-1.23.54-.48.12-1,.19-1.58.19-.51,0-.95-.05-1.33-.14s-.69-.22-.94-.37c-.25-.16-.43-.34-.56-.54s-.18-.42-.18-.64c0-.19.04-.35.12-.5s.19-.27.33-.38c.14-.1.31-.19.51-.24.2-.06.41-.09.65-.09.07,0,.15,0,.24,0,.08,0,.17.02.25.03v1.06c-.07,0-.14-.01-.2-.02s-.12,0-.17,0c-.09,0-.18.01-.26.03-.08.02-.12.06-.12.12,0,.05.04.11.11.17.07.06.17.12.32.17.14.05.31.1.52.13.21.04.45.05.72.05.41,0,.76-.04,1.08-.12.31-.08.57-.2.78-.34s.37-.32.48-.51c.11-.19.16-.41.16-.63,0-.25-.06-.43-.18-.55-.12-.12-.27-.18-.47-.18-.02,0-.07,0-.15.02-.08.01-.16.05-.25.11-.09.06-.17.16-.23.29s-.1.32-.1.57v.48h-1.48v-1.54h-2.14c-.2.32-.44.63-.74.91-.29.28-.64.53-1.04.75s-.87.38-1.4.51-1.13.19-1.8.19c-.56,0-1.07-.04-1.51-.13-.44-.08-.83-.2-1.16-.33s-.62-.3-.85-.48c-.23-.18-.42-.37-.57-.56-.15-.19-.25-.39-.32-.58s-.1-.37-.1-.53c0-.13.02-.26.07-.4s.13-.25.25-.36c.12-.1.27-.19.45-.25.19-.07.42-.1.7-.1h6.98c.02-.05.03-.1.04-.14s.01-.08.02-.12c0-.04,0-.08.01-.12,0-.04,0-.09,0-.14,0-.33-.03-.65-.09-.94-.06-.3-.16-.56-.29-.79-.13-.23-.29-.42-.49-.57-.2-.15-.43-.25-.71-.3v.03c.16.15.28.31.35.49.07.18.11.37.11.55,0,.2-.04.4-.13.59-.08.2-.21.37-.37.52-.17.15-.37.27-.62.37-.25.09-.53.14-.85.14s-.59-.04-.84-.13c-.25-.09-.47-.21-.65-.38-.18-.16-.32-.36-.41-.59-.1-.23-.15-.48-.15-.76,0-.32.07-.62.2-.88.13-.26.32-.49.57-.68s.55-.34.91-.44c.36-.1.77-.16,1.22-.16.59,0,1.12.09,1.58.27.46.18.85.43,1.16.76.32.33.56.73.72,1.2.17.47.25,1,.25,1.6,0,.13,0,.25-.01.33,0,.09-.02.19-.04.29h1.68v-4.6Zm-9.97,5.93c-.06,0-.1.02-.12.05-.02.03-.03.07-.03.1,0,.11.09.22.26.33.17.11.4.21.68.29s.61.16.98.21c.37.05.75.08,1.16.08s.77-.03,1.09-.09.63-.14.89-.24c.27-.1.5-.21.71-.34.21-.13.39-.26.55-.4h-6.17Zm3.88-4.53c-.1.02-.2.05-.29.08-.1.04-.19.09-.27.15-.08.06-.14.14-.2.23-.05.09-.08.2-.08.33,0,.22.07.39.21.5.14.11.32.17.53.17.13,0,.24-.02.33-.06.09-.04.17-.09.23-.15.06-.06.11-.13.14-.21s.05-.16.05-.25c0-.17-.06-.34-.17-.49-.11-.15-.28-.26-.49-.31Z"/><path class="cls-13" d="m121.3,44.94v5.53h-1.48v-5.53h-.68c-.26,0-.49,0-.71,0-.22,0-.45,0-.69,0,.3.29.54.66.72,1.11.18.45.27.96.27,1.54,0,.45-.06.85-.17,1.22-.12.37-.28.68-.5.95-.22.26-.48.47-.79.61s-.66.22-1.05.22c-.41,0-.77-.08-1.08-.23-.31-.15-.57-.36-.78-.63-.21-.27-.37-.58-.48-.93-.11-.35-.16-.73-.16-1.13,0-.24.02-.49.06-.74.04-.25.11-.5.2-.74.09-.24.2-.48.34-.7.14-.22.3-.44.5-.63-.21-.04-.42-.07-.63-.09s-.43-.03-.67-.03c-.13,0-.25,0-.36,0-.11,0-.22.01-.32.03-.11.01-.21.03-.32.04-.11.02-.23.04-.35.06.16.15.31.33.44.53.13.2.25.41.34.64.1.23.17.48.22.75.05.27.08.54.08.84,0,.43-.06.83-.17,1.19-.12.36-.28.68-.5.94-.22.26-.48.47-.79.62-.31.15-.66.22-1.06.22-.41,0-.78-.08-1.09-.24-.32-.16-.58-.37-.79-.64s-.38-.58-.48-.93c-.11-.35-.16-.72-.16-1.1,0-.52.1-1.02.3-1.5.2-.47.5-.91.9-1.31-.23-.05-.48-.09-.74-.11-.26-.02-.5-.04-.73-.04-.49,0-.92.05-1.28.14-.36.1-.67.22-.92.37s-.46.31-.62.49c-.16.18-.28.35-.37.52-.09.17-.15.32-.18.45s-.05.23-.05.29h.04c.16-.13.36-.25.59-.34.23-.1.49-.15.78-.15.25,0,.49.04.71.13.23.08.42.21.6.37.17.16.31.36.41.6.1.24.15.51.15.82,0,.33-.06.64-.18.9-.12.27-.27.49-.47.68-.2.19-.43.33-.7.43-.27.1-.55.15-.85.15-.4,0-.77-.09-1.09-.26s-.6-.41-.82-.7c-.23-.29-.4-.64-.52-1.03-.12-.39-.18-.8-.18-1.24,0-.64.13-1.21.39-1.71.26-.5.62-.92,1.07-1.26.45-.34.98-.6,1.59-.77.61-.18,1.26-.27,1.96-.27.2,0,.41,0,.64.02s.47.04.71.08c.25.04.49.09.74.16s.49.15.72.25c.45-.19.91-.33,1.39-.4.47-.08.94-.11,1.39-.11.2,0,.41,0,.64.02s.45.04.68.08c.23.04.46.09.69.15s.45.14.67.24c.27-.07.52-.12.75-.16.23-.04.46-.07.67-.09s.44-.04.65-.05.44-.01.68-.01h4.16v1.38h-1.86Zm-15.02,3.57c0-.21-.07-.38-.2-.51-.13-.13-.31-.2-.53-.2-.11,0-.22.02-.32.06-.1.04-.18.09-.26.15-.08.06-.14.14-.18.23s-.06.19-.06.29.02.2.06.29c.04.09.1.17.17.23.07.07.16.12.25.16.1.04.2.05.31.05s.21-.02.3-.06c.09-.04.17-.09.24-.16s.11-.14.15-.24c.04-.09.06-.19.06-.3Zm4.43-3.23c-.16.13-.3.29-.41.47-.11.18-.21.37-.28.57-.07.2-.13.4-.17.62s-.06.42-.06.63c0,.23.02.44.06.65s.1.38.19.54c.08.16.18.28.3.37.12.09.26.14.42.14.15,0,.29-.04.4-.13.12-.08.21-.2.29-.34.08-.14.14-.31.18-.5s.06-.39.06-.61-.02-.44-.06-.67-.1-.45-.18-.66c-.08-.21-.18-.41-.31-.6-.12-.18-.27-.34-.43-.47Zm5.41-.03c-.14.16-.27.33-.37.52-.11.19-.19.38-.26.59-.07.2-.12.41-.16.62s-.05.41-.05.61c0,.23.02.45.07.65s.11.38.19.53c.08.15.18.28.3.36.12.09.25.13.4.13s.28-.04.39-.13c.11-.09.21-.2.28-.35.08-.15.13-.32.17-.52s.06-.4.06-.62-.02-.44-.06-.66c-.04-.23-.1-.44-.18-.66-.08-.21-.19-.41-.32-.59-.13-.18-.28-.34-.46-.48Z"/><path class="cls-13" d="m112.48,41.35c0-.16.03-.31.09-.44.06-.14.14-.26.24-.36.1-.1.22-.18.36-.24.14-.06.29-.09.45-.09s.31.03.45.09c.14.06.26.14.37.24.1.1.19.22.25.36.06.14.09.29.09.44s-.03.3-.09.44c-.06.14-.14.26-.25.36-.1.1-.22.18-.37.24-.14.06-.29.09-.45.09s-.31-.03-.45-.09c-.14-.06-.26-.14-.36-.24-.1-.1-.18-.22-.24-.36-.06-.14-.09-.28-.09-.44Z"/><path class="cls-13" d="m134.64,49.02c0,.62-.09,1.19-.27,1.68-.18.5-.45.92-.8,1.27s-.77.62-1.28.81c-.5.19-1.07.28-1.72.28-.47,0-.92-.05-1.36-.16-.44-.1-.85-.26-1.24-.47s-.74-.47-1.07-.79c-.32-.32-.6-.69-.83-1.12-.23-.43-.41-.92-.54-1.46-.13-.54-.19-1.15-.19-1.81,0-1.03.16-1.93.47-2.72.31-.78.74-1.44,1.3-1.96.55-.53,1.21-.92,1.97-1.19.76-.27,1.6-.4,2.5-.4s1.64.12,2.32.35c.68.24,1.25.57,1.71,1.02.47.45.82,1.01,1.06,1.67.24.66.36,1.41.36,2.25v.16c0,.06,0,.11,0,.16s0,.1,0,.14v.06l-.02,3.69h-1.48l.02-3.49v-.08s0-.1,0-.17,0-.12,0-.19v-.16c0-.6-.08-1.16-.24-1.65-.16-.5-.41-.92-.74-1.27-.33-.35-.75-.63-1.26-.82s-1.11-.29-1.81-.29c-.77,0-1.44.12-2.01.35-.58.23-1.06.56-1.44.99s-.67.94-.87,1.53c-.19.6-.29,1.26-.29,1.98,0,.64.08,1.24.23,1.8.15.55.38,1.04.68,1.44.3.41.68.73,1.14.96.46.24.99.35,1.6.35.42,0,.8-.06,1.11-.18.32-.12.58-.29.79-.51s.37-.49.48-.81c.11-.32.16-.69.16-1.09,0-.14,0-.3-.03-.48-.02-.18-.06-.35-.13-.5s-.16-.29-.28-.4c-.12-.11-.29-.17-.5-.17-.13,0-.25.03-.37.08-.12.05-.22.13-.32.23-.09.1-.16.23-.22.39s-.08.35-.08.57v1.6h-1.49v-6.91h1.49v3.24h.03c.16-.13.36-.25.6-.36.24-.1.52-.15.83-.15s.6.06.85.18.46.29.64.52c.18.23.31.52.4.86.09.34.14.73.14,1.17Z"/></g><g><path class="cls-13" d="m85.3,70.12c0-4.84,7.42-5.39,7.42-9.61,0-1.67-1.23-2.99-3.24-2.99-2.23,0-3.38,1.99-3.38,1.99l-.64-.44s1.25-2.39,4.04-2.39,4.12,1.83,4.12,3.82c0,4.76-7.41,5.35-7.41,9.55h7.62v.8h-8.48c-.04-.26-.06-.5-.06-.74Z"/><path class="cls-13" d="m113.65,70.12c0-4.84,7.42-5.39,7.42-9.61,0-1.67-1.23-2.99-3.24-2.99-2.23,0-3.38,1.99-3.38,1.99l-.64-.44s1.25-2.39,4.04-2.39,4.12,1.83,4.12,3.82c0,4.76-7.41,5.35-7.41,9.55h7.62v.8h-8.48c-.04-.26-.06-.5-.06-.74Z"/><path class="cls-13" d="m126.79,68.29s1.45,1.73,3.74,1.73c1.77,0,3.48-1.37,3.48-3.42,0-2.17-1.83-3.32-3.72-3.32h-.96l-.24-.6,3.9-4.56c.3-.36.62-.64.62-.64v-.04s-.38.04-1.08.04h-5.71v-.8h7.98v.6l-4.5,5.2c1.67,0,4.6.84,4.6,4.12,0,2.39-2.01,4.26-4.42,4.26-2.65,0-4.34-1.93-4.34-1.93l.64-.64Z"/><g><path class="cls-20" d="m100.3,61.75c.18-.3.39-.57.63-.82l-2.08-2.28c-.52.5-.97,1.08-1.32,1.72l2.77,1.38Z"/><path class="cls-1" d="m105.4,60.14c.32.14.61.33.87.55l2.09-2.28c-.55-.47-1.17-.87-1.85-1.15l-1.11,2.89Z"/><path class="cls-4" d="m110.18,60.82l-2.77,1.38c.13.31.23.64.28.98l3.08-.29c-.09-.73-.29-1.42-.59-2.07"/><path class="cls-11" d="m107.22,61.8l2.77-1.38c-.34-.64-.78-1.21-1.29-1.72l-2.09,2.28c.24.24.44.52.61.82"/><path class="cls-5" d="m99.75,63.77c0-.06,0-.12,0-.19l-3.08-.28c0,.15-.02.31-.02.46,0,.59.07,1.16.21,1.71l2.97-.85c-.06-.28-.09-.56-.09-.86"/><path class="cls-2" d="m106.83,66.3c-.22.27-.47.5-.75.71l1.63,2.63c.6-.41,1.14-.91,1.59-1.48l-2.47-1.86Z"/><path class="cls-12" d="m107.74,63.77c0,.29-.03.58-.09.85l2.97.85c.14-.55.21-1.12.21-1.7,0-.15,0-.29-.01-.43l-3.08.29s0,.1,0,.14"/><path class="cls-15" d="m100.71,66.36l-2.46,1.87c.46.56,1,1.05,1.61,1.46l1.62-2.63c-.29-.2-.55-.43-.77-.7"/><path class="cls-8" d="m99.8,63.14c.06-.35.16-.68.29-.99l-2.77-1.38c-.31.65-.51,1.35-.61,2.09l3.08.28Z"/><path class="cls-7" d="m107.33,69.87l-1.62-2.63c-.29.17-.61.3-.95.39l.57,3.04c.71-.16,1.38-.44,2-.8"/><path class="cls-19" d="m107.53,65.05c-.11.32-.25.61-.43.89l2.47,1.86c.4-.58.72-1.21.93-1.9l-2.97-.85Z"/><path class="cls-14" d="m104.32,67.72c-.19.03-.38.04-.58.04-.16,0-.31,0-.46-.03l-.57,3.04c.34.05.68.08,1.04.08.39,0,.77-.03,1.15-.09l-.57-3.04Z"/><path class="cls-18" d="m104,59.78c.34.02.67.09.99.19l1.11-2.88c-.66-.23-1.37-.37-2.1-.4v3.09Z"/><path class="cls-6" d="m102.84,67.66c-.35-.08-.68-.21-.98-.37l-1.63,2.63c.63.36,1.31.62,2.03.78l.57-3.04Z"/><path class="cls-3" d="m102.55,59.96c.32-.1.66-.16,1.01-.18v-3.09c-.74.02-1.46.16-2.13.39l1.12,2.88Z"/><path class="cls-16" d="m100.44,66c-.2-.29-.36-.61-.47-.94l-2.97.85c.22.71.56,1.37.98,1.96l2.46-1.87Z"/><path class="cls-23" d="m101.27,60.64c.26-.21.55-.38.86-.52l-1.12-2.88c-.67.28-1.28.66-1.82,1.12l2.08,2.28Z"/></g></g><g><path class="cls-17" d="m42.8,37.77c-.55,0-1,.45-1,1v31.1c0,.55.45,1,1,1s1-.45,1-1v-31.1c0-.55-.44-1-1-1Z"/><path class="cls-17" d="m57.34,37.45c-.98,8.45-2.79,12.48-4.4,16.03-1.76,3.91-3.29,7.32-3.45,15.81,0,.46-.32.86-.77.96,0,0-.01,0-.02,0-.64.14-1.23-.35-1.22-1,.18-8.92,1.85-12.65,3.63-16.59,1.62-3.59,3.29-7.3,4.23-15.44.06-.55.55-.95,1.11-.88.55.06.94.56.88,1.11Z"/><path class="cls-17" d="m30.9,68.26s-.01,0-.02,0c-.28-.13-.47-.4-.54-.7-.78-3.37-2.84-5.12-5.47-7.34-1.73-1.47-3.7-3.13-5.52-5.53-.33-.44-.25-1.07.19-1.4.44-.34,1.07-.25,1.4.19,1.69,2.22,3.49,3.75,5.22,5.22,2.75,2.33,5.21,4.4,6.12,8.43.18.81-.63,1.49-1.38,1.14Z"/><path class="cls-17" d="m36.8,70.23s-.01,0-.02,0c-.43-.09-.74-.48-.77-.92-.84-13.55-2.08-15.28-6.74-21.81-.8-1.12-1.7-2.38-2.71-3.85-.31-.45-.19-1.07.26-1.39.46-.31,1.08-.19,1.39.26,1.01,1.46,1.9,2.71,2.69,3.82,4.81,6.74,6.24,8.72,7.11,22.86.04.66-.57,1.17-1.21,1.03Z"/><path class="cls-17" d="m69.28,43.11c-.14,6.82-3.62,10.18-7,13.43-3,2.89-5.86,5.65-6.74,10.84-.05.32-.25.6-.54.74,0,0-.01,0-.02.01-.72.35-1.55-.27-1.41-1.05,1.01-5.89,4.33-9.09,7.32-11.97,3.23-3.1,6.27-6.04,6.39-12.03,0-.55.46-.98,1-.98h.02c.55.01.99.47.98,1.02Z"/><path class="cls-10" d="m55.24,17.57c-.87-1.62-3.32-1.02-3.36.82-.05,2.92,1.02,9.65.96,14.47-.12,9.1-2.5,13.24,1.55,14.28,4.75,1.22,5.75-4.81,5.14-13.9-.35-5.21-2.57-12.48-4.28-15.67Z"/><path class="cls-24" d="m16.55,37.69c2.08-.42.72,5.91,3.26,9.78,1.12,1.7,2.44-1.55,3.29,2.17.99,4.33,6.61,7.96,3.29,10.6-3.54,2.82-11.95-4.42-11.95-17.72,0-2.62.78-4.56,2.11-4.83Z"/><path class="cls-22" d="m65.03,43.83c-.58-1.89-2.73-8-1.24-8.75,1.72-.87-2.61-9.23-.17-10.31,2.61-1.16,4.02,7.29,5.91,8.32,1.92,1.04,1.98,6.98.84,10.57-.26.81.82.22.54,2.32-.45,3.32-4.59,9.09-7.72,8.95-2.55-.12,1.18-5.22.59-8.01-.72-3.4,1.46-2.36,1.24-3.09Z"/><path class="cls-21" d="m45.57,16.25c-.54-1.39-1.66-2.08-2.79-2.08s-2.24.69-2.78,2.08c-1.29,3.34-2.89,28.38-2.89,31.94,0,3.13,2.54,5.67,5.67,5.67s5.67-2.54,5.67-5.67c0-3.56-1.59-28.6-2.88-31.94Z"/><path class="cls-9" d="m31.47,37.63c.6-.9.95-1.98.95-3.14,0-1.45-.55-2.77-1.44-3.77,1.18-.91,1.95-2.32,1.95-3.92,0-.99-.3-1.92-.8-2.69,1.06-.6,1.79-1.72,1.81-3.03.02-1.96-1.55-3.56-3.5-3.58-1.96-.02-3.56,1.55-3.58,3.5,0,.33.05.64.13.94-2.26.46-3.97,2.46-3.97,4.86,0,1.04.32,2.01.87,2.8-1.67.99-2.8,2.8-2.8,4.88s1.13,3.91,2.82,4.89c-.6.9-.95,1.98-.95,3.14,0,3.13,2.54,5.67,5.67,5.67s5.67-2.54,5.67-5.67c0-2.09-1.13-3.91-2.82-4.89Z"/></g></svg>