<?xml version="1.0" encoding="UTF-8"?>
<svg id="Livello_1" xmlns="http://www.w3.org/2000/svg" viewBox="0 0 208.74 56.7">
  <defs>
    <style>
      .cls-1 {
        fill: #f8c300;
      }

      .cls-2 {
        fill: #ec6321;
      }

      .cls-3 {
        fill: #f59d10;
      }

      .cls-4 {
        fill: #e7b818;
      }

      .cls-5 {
        fill: #e5351c;
      }

      .cls-6 {
        fill: #ae5d57;
      }

      .cls-7 {
        fill: #c21724;
      }

      .cls-8 {
        fill: #ca9817;
      }

      .cls-9 {
        fill: #e01932;
      }

      .cls-10 {
        fill: #d70560;
      }

      .cls-11 {
        fill: #e0bf78;
      }

      .cls-12 {
        fill: #d7af19;
      }

      .cls-13 {
        fill: #0f659a;
      }

      .cls-14 {
        fill: #417f3d;
      }

      .cls-15 {
        fill: #1b4467;
      }

      .cls-16 {
        fill: #3dbae2;
      }

      .cls-17 {
        fill: #a4183d;
      }

      .cls-18 {
        fill: #94c356;
      }

      .cls-19 {
        fill: #2993d1;
      }

      .cls-20 {
        fill: #63b232;
      }

      .cls-21 {
        fill: #3d3d3c;
      }

      .cls-22 {
        fill: #2c9942;
      }

      .cls-23 {
        fill: #5f8d44;
      }

      .cls-24 {
        fill: #774542;
      }
    </style>
  </defs>
  <g>
    <rect class="cls-21" x="69.17" y="1.85" width="1.1" height="8.75" />
    <polygon class="cls-21" points="73.43 3.86 76.94 10.6 78.05 10.6 78.05 1.85 76.95 1.85 76.95 8.62 73.43 1.85 72.32 1.85 72.32 10.6 73.43 10.6 73.43 3.86" />
    <polygon class="cls-21" points="79.32 2.8 81.61 2.8 81.61 10.6 82.71 10.6 82.71 2.8 85.02 2.8 85.02 1.85 79.32 1.85 79.32 2.8" />
    <polygon class="cls-21" points="91.13 9.65 87.53 9.65 87.53 6.55 90.63 6.55 90.63 5.62 87.53 5.62 87.53 2.8 91.07 2.8 91.07 1.85 86.43 1.85 86.43 10.6 91.13 10.6 91.13 9.65" />
    <path class="cls-21" d="m97.38,5.9c.23-.41.36-.87.36-1.42,0-.86-.22-1.51-.66-1.96-.44-.44-1.1-.66-1.95-.66h-2.45v8.75h1.11v-3.55h1.54l1.55,3.55h1.18v-.07l-1.7-3.72c.43-.21.78-.5,1.01-.91h.01Zm-2.27.22h-1.33v-3.32h1.32c1.02,0,1.53.57,1.53,1.69,0,.49-.14.9-.41,1.19s-.64.44-1.11.44Z" />
    <polygon class="cls-21" points="105.05 10.6 105.05 1.85 103.95 1.85 103.95 8.62 100.43 1.85 99.33 1.85 99.33 10.6 100.43 10.6 100.43 3.86 103.94 10.6 105.05 10.6" />
    <path class="cls-21" d="m108.31,8.31h2.95l.69,2.29h1.13l-2.82-8.75h-.95l-2.82,8.75h1.13s.68-2.29.68-2.29Zm1.48-4.92l1.19,3.98h-2.39s1.19-3.98,1.19-3.98Z" />
    <polygon class="cls-21" points="113.05 2.8 115.34 2.8 115.34 10.6 116.45 10.6 116.45 2.8 118.75 2.8 118.75 1.85 113.05 1.85 113.05 2.8" />
    <rect class="cls-21" x="120.22" y="1.85" width="1.1" height="8.75" />
    <path class="cls-21" d="m126.13,10.73c.94,0,1.66-.32,2.17-.97.5-.64.76-1.56.76-2.76v-1.59c0-1.18-.27-2.08-.79-2.72s-1.23-.95-2.15-.95-1.65.33-2.17,1c-.52.66-.78,1.58-.78,2.75v1.65c.02,1.15.3,2.03.81,2.66.52.63,1.23.94,2.14.94Zm-1.86-5.29c0-.89.16-1.56.47-2.02s.76-.69,1.38-.69,1.08.22,1.39.68.46,1.13.46,2.07v1.64c0,.9-.17,1.55-.47,1.99-.3.43-.75.65-1.37.65s-1.08-.23-1.39-.7-.47-1.15-.47-2.04v-1.56h0Z" />
    <polygon class="cls-21" points="131.99 3.86 135.5 10.6 136.6 10.6 136.6 1.85 135.51 1.85 135.51 8.62 131.99 1.85 130.89 1.85 130.89 10.6 131.99 10.6 131.99 3.86" />
    <path class="cls-21" d="m143.51,10.6h1.13l-2.82-8.75h-.95l-2.82,8.75h1.13l.68-2.29h2.95l.69,2.29Zm-3.36-3.24l1.19-3.98,1.19,3.98h-2.39Z" />
    <polygon class="cls-21" points="150.5 9.65 147.07 9.65 147.07 1.85 145.96 1.85 145.96 10.6 150.5 10.6 150.5 9.65" />
    <polygon class="cls-21" points="156.72 6.24 154.94 1.85 153.68 1.85 156.17 7.34 156.17 10.6 157.28 10.6 157.28 7.34 159.76 1.85 158.52 1.85 156.72 6.24" />
    <polygon class="cls-21" points="165.73 9.65 162.13 9.65 162.13 6.55 165.23 6.55 165.23 5.62 162.13 5.62 162.13 2.8 165.67 2.8 165.67 1.85 161.03 1.85 161.03 10.6 165.73 10.6 165.73 9.65" />
    <path class="cls-21" d="m168.39,8.31h2.95l.69,2.29h1.13l-2.82-8.75h-.95l-2.82,8.75h1.13l.68-2.29Zm1.48-4.92l1.19,3.98h-2.39l1.19-3.98Z" />
    <path class="cls-21" d="m175.6,7.06h1.54l1.55,3.55h1.18v-.07l-1.7-3.72c.43-.21.78-.5,1.01-.91.23-.41.36-.87.36-1.42,0-.86-.22-1.51-.66-1.96-.44-.44-1.1-.66-1.95-.66h-2.45v8.75h1.11v-3.55h.01Zm0-4.27h1.32c1.02,0,1.53.57,1.53,1.69,0,.49-.14.9-.41,1.19s-.64.44-1.11.44h-1.33s0-3.32,0-3.32Z" />
    <path class="cls-21" d="m186.42,10.73c.94,0,1.66-.32,2.17-.97.5-.64.76-1.56.76-2.76v-1.59c0-1.18-.27-2.08-.79-2.72s-1.23-.95-2.15-.95-1.65.33-2.17,1c-.52.66-.78,1.58-.78,2.75v1.65c.02,1.15.3,2.03.81,2.66.52.63,1.23.94,2.14.94Zm-1.86-5.29c0-.89.16-1.56.47-2.02s.76-.69,1.38-.69,1.08.22,1.39.68.46,1.13.46,2.07v1.64c0,.9-.17,1.55-.47,1.99-.3.43-.75.65-1.37.65s-1.08-.23-1.39-.7-.47-1.15-.47-2.04v-1.56h0Z" />
    <polygon class="cls-21" points="192.28 6.74 195.23 6.74 195.23 5.79 192.28 5.79 192.28 2.8 195.74 2.8 195.74 1.85 191.18 1.85 191.18 10.6 192.28 10.6 192.28 6.74" />
    <g>
      <path class="cls-21" d="m89.92,15.85h-3.35c-.36,0-.62.09-.76.25s-.27.3-.33.39l-5.52,9.33-5.52-9.33c-.04-.1-.15-.23-.33-.39s-.43-.25-.76-.25h-3.39c-.21,0-.39.07-.55.21s-.23.32-.23.53v19.21c0,.22.07.39.23.53.16.14.34.21.55.21h3.76c.23,0,.42-.07.57-.21.15-.14.22-.32.22-.53v-11.08l3.55,6.18c.1.17.23.33.41.47s.39.21.69.21h1.63c.3,0,.52-.07.69-.21s.3-.3.38-.47l3.53-6.18v11.08c0,.22.07.39.23.53.16.14.34.21.58.21h3.73c.23,0,.42-.07.58-.21s.23-.32.23-.53v-19.21c0-.22-.07-.39-.23-.53-.16-.14-.34-.21-.58-.21Z" />
      <path class="cls-21" d="m101.08,15.85h-4.2c-.23,0-.42.07-.57.21s-.22.32-.22.53v19.21c0,.22.07.39.22.53s.33.21.57.21h4.2c.23,0,.42-.07.57-.21s.22-.32.22-.53v-19.21c0-.22-.07-.39-.22-.53s-.33-.21-.57-.21Z" />
      <path class="cls-21" d="m122.42,32.08h-9.46v-15.49c0-.22-.07-.39-.23-.53-.16-.14-.34-.21-.55-.21h-4.14c-.23,0-.42.07-.57.21s-.22.32-.22.53v19.21c0,.22.07.39.22.53s.33.21.57.21h14.38c.23,0,.42-.07.58-.21s.23-.32.23-.53v-2.95c0-.22-.07-.39-.23-.54-.16-.15-.34-.22-.58-.22Z" />
      <path class="cls-21" d="m142.76,32.08h-9.46v-15.49c0-.22-.07-.39-.23-.53-.16-.14-.34-.21-.55-.21h-4.14c-.23,0-.42.07-.57.21s-.22.32-.22.53v19.21c0,.22.07.39.22.53s.33.21.57.21h14.38c.23,0,.42-.07.58-.21.16-.14.23-.32.23-.53v-2.95c0-.22-.07-.39-.23-.54-.16-.15-.34-.22-.58-.22Z" />
      <path class="cls-21" d="m163.6,32.27h-10.24v-4.11h9.31c.23,0,.42-.07.57-.22s.22-.32.22-.52v-2.57c0-.22-.07-.39-.22-.54s-.33-.22-.57-.22h-9.31v-3.99h10c.23,0,.42-.07.57-.21s.22-.32.22-.53v-2.78c0-.22-.07-.39-.22-.53s-.33-.21-.57-.21h-14.63c-.23,0-.42.07-.57.21s-.22.32-.22.53v19.21c0,.22.07.39.22.53s.33.21.57.21h14.89c.23,0,.42-.07.57-.21s.22-.32.22-.53v-2.78c0-.22-.07-.39-.22-.53s-.33-.21-.57-.21h-.01Z" />
      <path class="cls-21" d="m186.12,15.85h-16.86c-.23,0-.42.07-.57.21s-.22.32-.22.53v3.16c0,.2.07.37.22.52.15.15.33.22.57.22h5.58v15.3c0,.22.07.39.22.53s.33.21.57.21h4.14c.23,0,.42-.07.57-.21s.22-.32.22-.53v-15.3h5.58c.23,0,.42-.07.57-.22s.22-.32.22-.52v-3.16c0-.22-.07-.39-.22-.53s-.33-.21-.57-.21h-.01Z" />
      <path class="cls-21" d="m207.96,27.36c-.54-.8-1.4-1.45-2.57-1.95-1.17-.5-2.71-.92-4.6-1.26-1.15-.23-2.06-.47-2.71-.68s-1.13-.47-1.4-.76c-.28-.3-.42-.64-.42-1.03,0-.63.26-1.1.76-1.4s1.23-.46,2.14-.46c.86,0,1.55.16,2.08.49.53.32.86.7.98,1.13.12.17.27.31.44.38s.37.12.59.12h4.14c.18,0,.34-.06.47-.2.12-.12.18-.27.18-.43-.02-.63-.22-1.28-.62-1.93-.38-.66-.96-1.28-1.71-1.87-.75-.59-1.67-1.06-2.77-1.42s-2.36-.53-3.8-.53c-1.77,0-3.31.27-4.6.8-1.29.53-2.3,1.27-3.03,2.22-.73.95-1.08,2.02-1.08,3.23s.3,2.24.87,3.05c.58.82,1.44,1.48,2.55,1.98s2.47.91,4.06,1.23c1.23.23,2.22.47,2.95.69s1.28.48,1.61.76.5.64.5,1.08c0,.62-.31,1.1-.92,1.45s-1.53.53-2.75.53c-.73,0-1.34-.09-1.83-.25-.49-.17-.89-.39-1.19-.66s-.54-.57-.7-.86c-.12-.16-.27-.28-.42-.38-.16-.1-.38-.15-.68-.15h-3.95c-.18,0-.34.06-.48.2-.14.12-.21.27-.21.43.04,1.02.42,1.99,1.13,2.89.71.91,1.75,1.64,3.13,2.2s3.11.84,5.2.84c1.83,0,3.47-.26,4.89-.76s2.54-1.26,3.34-2.23,1.21-2.13,1.21-3.47c0-1.21-.27-2.2-.81-3l.04-.04Z" />
    </g>
  </g>
  <g>
    <path class="cls-21" d="m68.73,54.69c0-4.84,7.42-5.39,7.42-9.61,0-1.67-1.23-2.99-3.24-2.99-2.23,0-3.38,1.99-3.38,1.99l-.64-.44s1.25-2.39,4.04-2.39,4.12,1.83,4.12,3.82c0,4.76-7.41,5.35-7.41,9.55h7.62v.8h-8.48c-.04-.26-.06-.5-.06-.74h.01Z" />
    <path class="cls-21" d="m97.08,54.69c0-4.84,7.42-5.39,7.42-9.61,0-1.67-1.23-2.99-3.24-2.99-2.23,0-3.38,1.99-3.38,1.99l-.64-.44s1.25-2.39,4.04-2.39,4.12,1.83,4.12,3.82c0,4.76-7.41,5.35-7.41,9.55h7.62v.8h-8.48c-.04-.26-.06-.5-.06-.74h0Z" />
    <path class="cls-21" d="m110.22,52.86s1.45,1.73,3.74,1.73c1.77,0,3.48-1.37,3.48-3.42,0-2.17-1.83-3.32-3.72-3.32h-.96l-.24-.6,3.9-4.56c.3-.36.62-.64.62-.64v-.04s-.38.04-1.08.04h-5.71v-.8h7.98v.6l-4.5,5.2c1.67,0,4.6.84,4.6,4.12,0,2.39-2.01,4.26-4.42,4.26-2.65,0-4.34-1.93-4.34-1.93l.64-.64h0Z" />
    <g>
      <path class="cls-20" d="m83.73,46.32c.18-.3.39-.57.63-.82l-2.08-2.28c-.52.5-.97,1.08-1.32,1.72l2.77,1.38Z" />
      <path class="cls-4" d="m88.83,44.71c.32.14.61.33.87.55l2.09-2.28c-.55-.47-1.17-.87-1.85-1.15l-1.11,2.89h0Z" />
      <path class="cls-7" d="m93.61,45.4l-2.77,1.38c.13.31.23.64.28.98l3.08-.29c-.09-.73-.29-1.42-.59-2.07" />
      <path class="cls-22" d="m90.65,46.38l2.77-1.38c-.34-.64-.78-1.21-1.29-1.72l-2.09,2.28c.24.24.44.52.61.82" />
      <path class="cls-14" d="m83.18,48.34v-.19l-3.08-.28c0,.15-.02.31-.02.46,0,.59.07,1.16.21,1.71l2.97-.85c-.06-.28-.09-.56-.09-.86" />
      <path class="cls-1" d="m90.26,50.87c-.22.27-.47.5-.75.71l1.63,2.63c.6-.41,1.14-.91,1.59-1.48,0,0-2.47-1.86-2.47-1.86Z" />
      <path class="cls-5" d="m91.17,48.34c0,.29-.03.58-.09.85l2.97.85c.14-.55.21-1.12.21-1.7,0-.15,0-.29-.01-.43l-3.08.29v.14" />
      <path class="cls-3" d="m84.14,50.93l-2.46,1.87c.46.56,1,1.05,1.61,1.46l1.62-2.63c-.29-.2-.55-.43-.77-.7" />
      <path class="cls-19" d="m83.23,47.71c.06-.35.16-.68.29-.99l-2.77-1.38c-.31.65-.51,1.35-.61,2.09l3.08.28h0Z" />
      <path class="cls-17" d="m90.76,54.45l-1.62-2.63c-.29.17-.61.3-.95.39l.57,3.04c.71-.16,1.38-.44,2-.8" />
      <path class="cls-16" d="m90.96,49.62c-.11.32-.25.61-.43.89l2.47,1.86c.4-.58.72-1.21.93-1.9l-2.97-.85Z" />
      <path class="cls-2" d="m87.75,52.29c-.19.03-.38.04-.58.04-.16,0-.31,0-.46-.03l-.57,3.04c.34.05.68.08,1.04.08.39,0,.77-.03,1.15-.09l-.57-3.04h-.01Z" />
      <path class="cls-9" d="m87.43,44.36c.34.02.67.09.99.19l1.11-2.88c-.66-.23-1.37-.37-2.1-.4v3.09Z" />
      <path class="cls-10" d="m86.27,52.23c-.35-.08-.68-.21-.98-.37l-1.63,2.63c.63.36,1.31.62,2.03.78l.57-3.04h.01Z" />
      <path class="cls-15" d="m85.98,44.53c.32-.1.66-.16,1.01-.18v-3.09c-.74.02-1.46.16-2.13.39,0,0,1.12,2.88,1.12,2.88Z" />
      <path class="cls-8" d="m83.87,50.57c-.2-.29-.36-.61-.47-.94l-2.97.85c.22.71.56,1.37.98,1.96,0,0,2.46-1.87,2.46-1.87Z" />
      <path class="cls-13" d="m84.7,45.21c.26-.21.55-.38.86-.52l-1.12-2.88c-.67.28-1.28.66-1.82,1.12,0,0,2.08,2.28,2.08,2.28Z" />
    </g>
  </g>
  <g>
    <path class="cls-18" d="m28.37,23.6c-.55,0-1,.45-1,1v31.1c0,.55.45,1,1,1s1-.45,1-1v-31.1c0-.55-.44-1-1-1Z" />
    <path class="cls-18" d="m42.9,23.28c-.98,8.45-2.79,12.48-4.4,16.03-1.76,3.91-3.29,7.32-3.45,15.81,0,.46-.32.86-.77.96h-.02c-.64.14-1.23-.35-1.22-1,.18-8.92,1.85-12.65,3.63-16.59,1.62-3.59,3.29-7.3,4.23-15.44.06-.55.55-.95,1.11-.88.55.06.94.56.88,1.11h0Z" />
    <path class="cls-18" d="m16.47,54.09h-.02c-.28-.14-.47-.41-.54-.71-.78-3.37-2.84-5.12-5.47-7.34-1.73-1.47-3.7-3.13-5.52-5.53-.33-.44-.25-1.07.19-1.4.44-.34,1.07-.25,1.4.19,1.69,2.22,3.49,3.75,5.22,5.22,2.75,2.33,5.21,4.4,6.12,8.43.18.81-.63,1.49-1.38,1.14Z" />
    <path class="cls-18" d="m22.37,56.06h-.02c-.43-.1-.74-.48-.77-.92-.84-13.55-2.08-15.28-6.74-21.81-.8-1.12-1.7-2.38-2.71-3.85-.31-.45-.19-1.07.26-1.39.46-.31,1.08-.19,1.39.26,1.01,1.46,1.9,2.71,2.69,3.82,4.81,6.74,6.24,8.72,7.11,22.86.04.66-.57,1.17-1.21,1.03Z" />
    <path class="cls-18" d="m54.84,28.94c-.14,6.82-3.62,10.18-7,13.43-3,2.89-5.86,5.65-6.74,10.84-.05.32-.25.6-.54.74h-.02c-.72.36-1.55-.26-1.41-1.04,1.01-5.89,4.33-9.09,7.32-11.97,3.23-3.1,6.27-6.04,6.39-12.03,0-.55.46-.98,1-.98h.02c.55,0,.99.47.98,1.02h0Z" />
    <path class="cls-12" d="m40.8,3.4c-.87-1.62-3.32-1.02-3.36.82-.05,2.92,1.02,9.65.96,14.47-.12,9.1-2.5,13.24,1.55,14.28,4.75,1.22,5.75-4.81,5.14-13.9-.35-5.21-2.57-12.48-4.28-15.67h-.01Z" />
    <path class="cls-24" d="m2.11,23.52c2.08-.42.72,5.91,3.26,9.78,1.12,1.7,2.44-1.55,3.29,2.17.99,4.33,6.61,7.96,3.29,10.6-3.54,2.82-11.95-4.42-11.95-17.72,0-2.62.78-4.56,2.11-4.83Z" />
    <path class="cls-23" d="m50.6,29.66c-.58-1.89-2.73-8-1.24-8.75,1.72-.87-2.61-9.23-.17-10.31,2.61-1.16,4.02,7.29,5.91,8.32,1.92,1.04,1.98,6.98.84,10.57-.26.81.82.22.54,2.32-.45,3.32-4.59,9.09-7.72,8.95-2.55-.12,1.18-5.22.59-8.01-.72-3.4,1.46-2.36,1.24-3.09h.01Z" />
    <path class="cls-6" d="m31.14,2.08c-.54-1.39-1.66-2.08-2.79-2.08s-2.24.69-2.78,2.08c-1.29,3.34-2.89,28.38-2.89,31.94,0,3.13,2.54,5.67,5.67,5.67s5.67-2.54,5.67-5.67c0-3.56-1.59-28.6-2.88-31.94Z" />
    <path class="cls-11" d="m17.03,23.46c.6-.9.95-1.98.95-3.14,0-1.45-.55-2.77-1.44-3.77,1.18-.91,1.95-2.32,1.95-3.92,0-.99-.3-1.92-.8-2.69,1.06-.6,1.79-1.72,1.81-3.03.02-1.96-1.55-3.56-3.5-3.58s-3.56,1.55-3.58,3.5c0,.33.05.64.13.94-2.26.46-3.97,2.46-3.97,4.86,0,1.04.32,2.01.87,2.8-1.67.99-2.8,2.8-2.8,4.88s1.13,3.91,2.82,4.89c-.6.9-.95,1.98-.95,3.14,0,3.13,2.54,5.67,5.67,5.67s5.67-2.54,5.67-5.67c0-2.09-1.13-3.91-2.82-4.89h0Z" />
  </g>
</svg>